<svg xmlns="http://www.w3.org/2000/svg" xmlns:xlink="http://www.w3.org/1999/xlink" viewBox="0 0 157 33.86"><defs><style>.cls-1{fill:#fff;}.cls-2{mask:url(#mask);}.cls-3{mask:url(#mask-2-2);}.cls-4{mask:url(#mask-3);}.cls-5{fill:#1875f0;}</style><mask id="mask" x="0" y="0.07" width="18.08" height="33.8" maskUnits="userSpaceOnUse"><g id="mask-2"><polygon id="path-1" class="cls-1" points="0 0.07 0 33.86 18.08 33.86 18.08 0.07 0 0.07"/></g></mask><mask id="mask-2-2" x="11.01" y="20.43" width="22.99" height="12.5" maskUnits="userSpaceOnUse"><g id="mask-4"><polygon id="path-3" class="cls-1" points="11.01 32.94 34 32.94 34 20.43 11.01 20.43 11.01 32.94"/></g></mask><mask id="mask-3" x="10.94" y="0" width="22.99" height="13.32" maskUnits="userSpaceOnUse"><g id="mask-6"><polygon id="path-5" class="cls-1" points="33.93 0 10.94 0 10.94 13.32 33.93 13.32 33.93 0"/></g></mask></defs><title>Page-1</title><g id="图层_2" data-name="图层 2"><g id="图层_1-2" data-name="图层 1"><g id="Page-1"><g id="main"><g id="Navigate-Card"><g id="logo"><g id="Page-1-2" data-name="Page-1"><g id="Group-3"><g class="cls-2"><path id="Fill-1" class="cls-1" d="M9,33.86l8.59-14.71a4.24,4.24,0,0,0,0-3.74L9,.07.42,15.41a4.24,4.24,0,0,0,0,3.74Z"/></g></g><g id="Group-6"><g class="cls-3"><path id="Fill-4" class="cls-1" d="M11,32.94H24.16a4.23,4.23,0,0,0,3.2-1.75L34,20.43H20.85a4.22,4.22,0,0,0-3.2,1.76Z"/></g></g><g id="Group-9"><g class="cls-4"><path id="Fill-7" class="cls-1" d="M10.94,0H24.09a4.12,4.12,0,0,1,3.2,1.87l6.64,11.45H20.78a4.15,4.15,0,0,1-3.2-1.87Z"/></g></g><path id="Fill-10" class="cls-1" d="M62,17.82H59a3.14,3.14,0,0,0-1.09-1.88,3.65,3.65,0,0,0-2.2-.61,3.12,3.12,0,0,0-2.62,1.2,5.34,5.34,0,0,0-.95,3.37A5.49,5.49,0,0,0,53,23.34a3.41,3.41,0,0,0,6-1.69h3a6.3,6.3,0,0,1-2.12,4,6.64,6.64,0,0,1-4.26,1.29,6.16,6.16,0,0,1-4.92-2,7.24,7.24,0,0,1-1.7-5A7.16,7.16,0,0,1,50.67,15a6.23,6.23,0,0,1,5-2.08,7,7,0,0,1,4.24,1.15A5.6,5.6,0,0,1,62,17.82Z"/><path id="Fill-12" class="cls-1" d="M72,16.29A6.25,6.25,0,0,0,70.09,16a2.85,2.85,0,0,0-2.1.92,3.68,3.68,0,0,0-1.06,2.79v7.23H64V13.31h2.93v1.95a4.56,4.56,0,0,1,1.26-1.58,3.15,3.15,0,0,1,2.13-.74,3.65,3.65,0,0,1,1.68.34Z"/><path id="Fill-14" class="cls-1" d="M77.13,18.54H84c-.26-2.16-1.41-3.21-3.46-3.21a3,3,0,0,0-2.28.82A4.33,4.33,0,0,0,77.13,18.54ZM87,20.75H77.08a4.74,4.74,0,0,0,1,2.82,3,3,0,0,0,2.43,1,3.59,3.59,0,0,0,2.18-.62,4.34,4.34,0,0,0,1.18-1.61H86.8A6.06,6.06,0,0,1,85,25.42a6.58,6.58,0,0,1-4.41,1.52,6.21,6.21,0,0,1-4.69-1.82A7.1,7.1,0,0,1,74,19.93a7.17,7.17,0,0,1,1.74-5,5.75,5.75,0,0,1,4.67-2,5.92,5.92,0,0,1,5,2.21A8.86,8.86,0,0,1,87,20.75Z"/><path id="Fill-16" class="cls-1" d="M96,20.59c-2.51.06-3.75.88-3.75,2.47a1.36,1.36,0,0,0,.64,1.16,2.9,2.9,0,0,0,1.68.48,4.82,4.82,0,0,0,3-1,3.16,3.16,0,0,0,1.27-2.55v-.66Zm6-2.49v8.48H99.08V24.83a5.5,5.5,0,0,1-2,1.52,8.3,8.3,0,0,1-3.22.59,5.41,5.41,0,0,1-3.5-1.05A3.37,3.37,0,0,1,89,23.16a3.83,3.83,0,0,1,1.87-3.44,9.19,9.19,0,0,1,4.88-1.23l3.11-.08V17.9c0-1.75-1-2.6-3.06-2.6a4.06,4.06,0,0,0-2.09.44,2.29,2.29,0,0,0-1.18,1.54l-3.12-.23a4.51,4.51,0,0,1,2.32-3.21,8.42,8.42,0,0,1,4.29-.9,6.48,6.48,0,0,1,4.66,1.46A4.9,4.9,0,0,1,102,18.1Z"/><path id="Fill-18" class="cls-1" d="M109.14,13.33H112v2.48h-2.86v7.68a1.12,1.12,0,0,0,.2.74.82.82,0,0,0,.65.24h1.69v2.47h-2.16a3,3,0,0,1-2.46-1,3.68,3.68,0,0,1-.75-2.5V15.81H104V13.33h2.31V10.18l2.83-1.24Z"/><path id="Fill-20" class="cls-1" d="M122.7,17.15a2.44,2.44,0,0,0-.93-1.41,3.82,3.82,0,0,0-2-.41,3.57,3.57,0,0,0-1.76.33,1.13,1.13,0,0,0-.67,1.11c0,.41.34.79,1.06,1.1a22,22,0,0,0,2.66.77,10.73,10.73,0,0,1,3.35,1.26,3.17,3.17,0,0,1,1.6,2.8c0,2.83-2,4.24-6,4.24-3.72,0-5.7-1.57-6-4.68h2.87a2.88,2.88,0,0,0,.9,1.8,3.68,3.68,0,0,0,2.11.49c2.07,0,3.1-.57,3.1-1.64a1.66,1.66,0,0,0-1.16-1.47,15,15,0,0,0-2.63-.74,11.3,11.3,0,0,1-3.33-1.16,3,3,0,0,1-1.55-2.7A3.19,3.19,0,0,1,115.83,14a6.69,6.69,0,0,1,4-1.05c3.51,0,5.44,1.38,5.75,4.21Z"/><path id="Fill-22" class="cls-1" d="M131.15,20a5.28,5.28,0,0,0,.89,3.16,3.76,3.76,0,0,0,5.92,0,5.42,5.42,0,0,0,.92-3.16,5.37,5.37,0,0,0-.92-3.18,3.76,3.76,0,0,0-5.92,0A5.36,5.36,0,0,0,131.15,20ZM142,20a6.67,6.67,0,0,1-7,7,6.68,6.68,0,0,1-7-7,6.84,6.84,0,0,1,1.91-5,6.65,6.65,0,0,1,5.09-2,6.73,6.73,0,0,1,5.09,2A6.92,6.92,0,0,1,142,20Z"/><path id="Fill-24" class="cls-1" d="M157,26.94h-3V18.79c0-2.24-1-3.35-3-3.35a2.71,2.71,0,0,0-1.93.8,3.75,3.75,0,0,0-1.09,2.5v8.2h-3V13.31h3v1.58a5.47,5.47,0,0,1,1.77-1.45,4.79,4.79,0,0,1,2.21-.5c3.36,0,5.05,1.84,5.05,5.59Z"/><path id="Fill-26" class="cls-5" d="M107.5,6.94a2.5,2.5,0,1,1,2.5-2.5A2.5,2.5,0,0,1,107.5,6.94Z"/></g></g></g></g></g></g></g></svg>